<?xml version="1.0" encoding="UTF-8" standalone="no"?>
<svg width="1200" height="600" viewBox="0 0 1200 600" fill="none" xmlns="http://www.w3.org/2000/svg">
  <g opacity="0.08">
    <path d="M0 100 C 200 150, 400 50, 600 100 C 800 150, 1000 50, 1200 100 L 1200 600 L 0 600 Z" fill="url(#gradient1)" />
    <path d="M0 200 C 200 250, 400 150, 600 200 C 800 250, 1000 150, 1200 200 L 1200 600 L 0 600 Z" fill="url(#gradient2)" />
    <path d="M0 300 C 200 350, 400 250, 600 300 C 800 350, 1000 250, 1200 300 L 1200 600 L 0 600 Z" fill="url(#gradient3)" />
  </g>
  <defs>
    <linearGradient id="gradient1" x1="0" y1="0" x2="1200" y2="0" gradientUnits="userSpaceOnUse">
      <stop offset="0" stop-color="#6675e0" />
      <stop offset="1" stop-color="#8f94fb" />
    </linearGradient>
    <linearGradient id="gradient2" x1="0" y1="0" x2="1200" y2="0" gradientUnits="userSpaceOnUse">
      <stop offset="0" stop-color="#8f94fb" />
      <stop offset="1" stop-color="#6675e0" />
    </linearGradient>
    <linearGradient id="gradient3" x1="0" y1="0" x2="1200" y2="0" gradientUnits="userSpaceOnUse">
      <stop offset="0" stop-color="#6675e0" />
      <stop offset="1" stop-color="#8f94fb" />
    </linearGradient>
  </defs>
</svg>